<svg version="1.1" xmlns="http://www.w3.org/2000/svg" x="0" y="0" viewBox="0 0 2000 760" xml:space="preserve" aria-labelledby="title"><title id="title">Link Icon</title><path d="M946.3 499.7L925.9 520c-17.7 17.5-46.4 17.5-64.1 0 -8.5-8.4-13.2-19.6-13.2-31.5s4.7-23.1 13.2-31.5l75.1-74.5c15.6-15.4 44.8-38.1 66.2-17 9.8 9.7 25.6 9.7 35.3-0.1 9.7-9.8 9.7-25.6-0.1-35.3 -36.3-36-89.9-29.3-136.5 17l-75.1 74.5c-18 17.9-27.9 41.7-27.9 67 0 25.3 9.9 49.1 27.9 67 18.5 18.4 42.9 27.6 67.2 27.6 24.4 0 48.7-9.2 67.3-27.6l20.4-20.3c9.8-9.7 9.8-25.5 0.1-35.3C971.9 490.1 956.1 490 946.3 499.7zM1173.8 210.4c-38.9-38.6-93.4-40.7-129.5-5l-25.4 25.2c-9.8 9.7-9.9 25.5-0.1 35.3 9.7 9.8 25.5 9.8 35.3 0.1l25.4-25.2c18.7-18.5 43.1-10.9 59.1 5 8.5 8.4 13.2 19.6 13.2 31.5 0 11.9-4.7 23.1-13.2 31.5l-80.1 79.5c-36.6 36.3-53.8 19.3-61.1 12 -9.8-9.7-25.6-9.7-35.3 0.1 -9.7 9.8-9.7 25.6 0.1 35.3 16.8 16.7 36 25 56.1 25 24.6 0 50.7-12.4 75.4-37l80.1-79.5c18-17.9 27.9-41.7 27.9-67C1201.7 252.1 1191.8 228.3 1173.8 210.4z"/></svg>
