<svg xmlns="http://www.w3.org/2000/svg" viewBox="0 0 100 44" aria-labelledby="title"><title id="title">Rating Icon</title><path d="M85.8 16.3c.1.2.9.4 2.6.6s3.3.6 4.8 1.1c1.5.5 2.3 1.2 2.3 2.1 0 2.1-.9 6.3-2.7 12.6-1.8 6.3-3.4 9.4-4.8 9.4-4.3 0-8.5-.6-12.8-1.9-4.3-1.2-6.4-2.5-6.4-3.9V21.1c0-.4.2-.9.7-1.5s1.1-1.3 2-2c.9-.7 1.7-1.3 2.4-1.8s1.6-1.1 2.8-1.9 1.9-1.3 2-1.4c1.5-1 3-2.5 4.6-4.4 1.6-2 2.9-3.5 3.8-4.6.9-1.2 1.5-1.5 1.8-1.2 1.4 2.3 1.9 4.3 1.3 6.1s-1.4 3.6-2.6 5.3-1.8 2.6-1.8 2.6zm-19.2.2c.4 0 .4.2 0 .6-1.5 1.5-2.2 3-2.2 4.6v14.1c0 1.5.8 3 2.3 4.6.3.3.3.4-.1.4-.8 0-1.6-.1-2.4-.4s-1.8-.9-2.8-2S60 36 60 34.2V23.4c0-1.8.5-3.3 1.5-4.4s1.9-1.8 2.8-2.1c.8-.2 1.6-.4 2.3-.4zM15.5 28.1c-.1-.2-.9-.4-2.5-.6s-3.3-.5-4.8-1c-1.6-.5-2.3-1.2-2.3-2.1 0-2.1.9-6.3 2.7-12.6s3.4-9.4 4.7-9.4c4.2 0 8.5.6 12.7 1.9s6.4 2.6 6.4 3.9v15.1c0 .3-.1.6-.4 1.1-.2.4-.6.9-1.1 1.3-.5.5-1 .9-1.4 1.3-.4.4-1.1.9-1.9 1.4-.8.6-1.4 1-1.8 1.3-.4.3-1 .7-1.8 1.2l-1.5 1c-1.5 1-3 2.5-4.6 4.4-1.6 1.9-2.8 3.5-3.8 4.6s-1.5 1.5-1.8 1.1c-1.4-2.2-1.8-4.3-1.3-6.1s1.4-3.6 2.6-5.3c1.3-1.6 1.9-2.4 1.9-2.5zm19.1-.2c-.4 0-.3-.2.1-.6 1.4-1.5 2.1-3 2.1-4.6V8.6c0-1.5-.8-3-2.3-4.6-.3-.3-.3-.4.1-.4.8 0 1.6.1 2.4.4.9.2 1.8.9 2.7 2 1 1.1 1.5 2.5 1.5 4.4V21c0 1.4-.3 2.6-.8 3.6s-1.2 1.7-2 2.1c-.8.4-1.5.8-2.1.9-.6.2-1.2.3-1.7.3z"/></svg>
