<svg xmlns="http://www.w3.org/2000/svg" viewBox="0 0 1000 1000"><path d="M785 573.3c-10.5-13.4-23.4-26.1-38.2-38.1-31.7-26-73-49-124.4-69.1-75.2-29.8-124.1-53.6-147.1-71.1-22.9-17.7-34.5-37.3-34.5-59.2 0-55.5 35-83.2 104.9-83.2 77.9 0 138.8 18.7 182.5 56.1l57.7-155.3c-41.7-21.2-84.9-36.6-129.5-46.6-11.3-2.5-22.7-4.7-34.3-6.5l-328.7 75.8c-6 5.8-11.6 12-16.8 18.4-29.1 36.2-43.7 80.9-43.7 134.1 0 80.4 39.2 147.5 117.2 201.8 29.3 20.4 64 39.1 104.4 55.9 67.9 28.3 113.6 52.8 137 73.7 23.4 20.8 35.2 47.5 35.2 80-.2 55.5-38.9 83.2-116.9 83.2-75.2 0-142.7-23.7-202.5-71.2L236 911c54 28.9 97.9 47.8 132.1 56.9 1.7.5 3.5.9 5.3 1.3L787 873.8c31.8-40.2 47.7-89.3 47.7-147.6-.1-59.8-16.6-110.7-49.7-152.9z"/></svg>